<?xml version="1.0" encoding="utf-8"?>
<svg version="1.1" xmlns="http://www.w3.org/2000/svg" xmlns:xlink="http://www.w3.org/1999/xlink" height="259" width="259">
  <defs>
    <rect id="rect-1" opacity="1" x="0" y="0" width="250" height="250"/>
    <filter id="filter-2" filterUnits="userSpaceOnUse" x="-50%" y="-50%" width="200%" height="200%">
      <feOffset in="SourceAlpha" result="shadow-1-feOffset-shadow" dx="2" dy="2"/>
      <feGaussianBlur in="shadow-1-feOffset-shadow" result="shadow-1-feGaussianBlur-shadow" stdDeviation="2"/>
      <feColorMatrix in="shadow-1-feGaussianBlur-shadow" result="shadow-1-feColorMatrix-shadow" type="matrix" values="0 0 0 0 0  0 0 0 0 0  0 0 0 0 0  0 0 0 1 0"/>
    </filter>
    <path id="path-3" opacity="1" fill-rule="evenodd" d="M14.75675675675568,11.160714285713706 L111.36936936936885,11.160714285713706 C115.78468956532086,11.160714285713706 119.36936936936885,14.745394089761707 119.36936936936885,19.160714285713706 L119.36936936936885,116.99999999999892 C119.36936936936885,121.41532019595093 115.78468956532086,124.99999999999892 111.36936936936885,124.99999999999892 L14.75675675675568,124.99999999999892 C10.34143656080368,124.99999999999892 6.7567567567556805,121.41532019595093 6.75675675675568,116.99999999999892 L6.75675675675568,19.160714285713706 C6.75675675675568,14.745394089761707 10.341436560803679,11.160714285713706 14.75675675675568,11.160714285713706Z"/>
    <path id="path-4" opacity="1" fill-rule="evenodd" d="M14.75675675675568,131.69642857142946 L111.36936936936885,131.69642857142946 C115.78468956532086,131.69642857142946 119.36936936936885,135.28110837547746 119.36936936936885,139.69642857142946 L119.36936936936885,235.3035714285723 C119.36936936936885,239.7188916245243 115.78468956532086,243.3035714285723 111.36936936936885,243.3035714285723 L14.75675675675568,243.3035714285723 C10.34143656080368,243.3035714285723 6.7567567567556805,239.7188916245243 6.75675675675568,235.3035714285723 L6.75675675675568,139.69642857142946 C6.75675675675568,135.28110837547746 10.341436560803679,131.69642857142946 14.75675675675568,131.69642857142946Z"/>
    <path id="path-5" opacity="1" fill-rule="evenodd" d="M134.12612612613202,11.160714285713706 L230.73873873874481,11.160714285713706 C235.15405893469682,11.160714285713706 238.73873873874481,14.745394089761707 238.73873873874481,19.160714285713706 L238.73873873874481,116.99999999999892 C238.73873873874481,121.41532019595093 235.15405893469682,124.99999999999892 230.73873873874481,124.99999999999892 L134.12612612613202,124.99999999999892 C129.71080593018002,124.99999999999892 126.12612612613202,121.41532019595093 126.12612612613202,116.99999999999892 L126.12612612613202,19.160714285713706 C126.12612612613202,14.745394089761707 129.71080593018002,11.160714285713706 134.12612612613202,11.160714285713706Z"/>
    <path id="path-6" opacity="1" fill-rule="evenodd" d="M134.12612612613202,131.69642857142946 L230.73873873874481,131.69642857142946 C235.15405893469682,131.69642857142946 238.73873873874481,135.28110837547746 238.73873873874481,139.69642857142946 L238.73873873874481,235.3035714285723 C238.73873873874481,239.7188916245243 235.15405893469682,243.3035714285723 230.73873873874481,243.3035714285723 L134.12612612613202,243.3035714285723 C129.71080593018002,243.3035714285723 126.12612612613202,239.7188916245243 126.12612612613202,235.3035714285723 L126.12612612613202,139.69642857142946 C126.12612612613202,135.28110837547746 129.71080593018002,131.69642857142946 134.12612612613202,131.69642857142946Z"/>
  </defs>
  <g transform="translate(2.5, 2.5)" opacity="0.7">
    <g opacity="1">
      <g opacity="1">
        <use xlink:href="#rect-1" fill="black" filter="url(#filter-2)" stroke="black" stroke-opacity="1" stroke-width="1"/>
        <use xlink:href="#rect-1" fill="rgb(200,200,200)" fill-opacity="1"/>
        <use xlink:href="#rect-1" fill-opacity="0" stroke="rgb(128,128,128)" stroke-opacity="1" stroke-width="1" stroke-linecap="square" stroke-linejoin="bevel"/>
      </g>
      <g opacity="1">
        <use xlink:href="#path-3" fill="rgb(51,153,255)" fill-opacity="1"/>
      </g>
      <g opacity="1">
        <use xlink:href="#path-4" fill="rgb(255,95,88)" fill-opacity="1"/>
      </g>
      <g opacity="1">
        <use xlink:href="#path-5" fill="rgb(51,225,255)" fill-opacity="1"/>
      </g>
      <g opacity="1">
        <use xlink:href="#path-6" fill="rgb(42,201,64)" fill-opacity="1"/>
      </g>
    </g>
  </g>
</svg>